:SAMPLES-PER-SECOND 30
:FULLY-SPECIFIED
:DEGREES
2064
root  9.84877 39.5618 21.5773 27.723 83.2351 23.3449
RightUpLeg  -27.0556 -35.6407 -0.0632239
RightLeg  33.5133 4.25277 2.81343
RightFoot  -2.29745 -0.459767 5.3709
RightToes  0.000481921 0.542163 -0.142578
Spine  26.5425 0.549273 1.47499
Spine1  -3.26341 0.929418 -0.137752
HEad  -19.7874 3.58991 -0.681288
LeftShoulder1  8.60035 -13.909 -42.9409
LeftArm  0.709332 1.59528 -35.232
LeftForeArm  -176.281 -59.8305 -164.145
LeftHand  -0.25398 0.0180481 5.50724
RightShoulder  5.23381 10.455 31.5475
RightArm  11.6592 -3.44862 43.2634
RightForeArm  165.359 67.825 155.53
RightHand  -1.30641 3.91574 -16.5206
LeftUpLeg  -19.5524 21.0458 -4.85835
LeftLeg  21.8093 10.1265 4.76082
LeftFoot  -6.93476 0.0562335 -0.387238
LeftToes  1.06245e-005 4.65868e-005 -8.65517e-006
2065
root  9.86836 39.4699 21.754 30.0284 82.5848 26.0558
RightUpLeg  -28.9152 -35.109 -3.12078
RightLeg  39.3542 8.98263 7.58735
RightFoot  1.28402 -1.67341 15.0486
RightToes  0.000481921 0.542163 -0.142578
Spine  26.8533 0.487256 0.92047
Spine1  -3.80585 0.931059 -0.802479
HEad  -20.3096 3.60179 -1.01757
LeftShoulder1  8.58939 -14.0488 -42.5181
LeftArm  0.646182 1.02885 -35.1831
LeftForeArm  -176.615 -59.837 -164.112
LeftHand  -0.25398 0.0180481 5.50724
RightShoulder  5.30509 10.5893 31.6968
RightArm  11.25 -3.73699 44.3235
RightForeArm  165.777 67.6453 155.785
RightHand  -1.33903 4.0384 -16.7099
LeftUpLeg  -19.4384 24.2288 -5.13014
LeftLeg  22.4215 7.54938 3.7468
LeftFoot  -7.14847 0.102496 -1.62078
LeftToes  1.06245e-005 4.65868e-005 -8.65517e-006
2066
root  9.90399 39.2836 21.9692 33.7541 82.1566 30.1277
RightUpLeg  -30.2154 -33.6357 -6.90054
RightLeg  44.2693 13.0274 12.9464
RightFoot  3.66578 -3.14109 23.8521
RightToes  0.000481921 0.542163 -0.142578
Spine  27.056 0.343696 0.381343
Spine1  -4.40513 0.91904 -1.70685
HEad  -20.7241 3.85661 -1.73051
LeftShoulder1  8.54195 -13.9777 -42.4516
LeftArm  0.846716 0.294283 -35.0182
LeftForeArm  -176.5 -59.7059 -164.203
LeftHand  -0.25398 0.0180481 5.50724
RightShoulder  5.33148 10.6541 31.7108
RightArm  10.9379 -4.135 45.1033
RightForeArm  166.293 67.1568 156.39
RightHand  -1.39676 4.25929 -17.0298
LeftUpLeg  -19.5851 26.1079 -5.58346
LeftLeg  23.4436 5.96579 3.1803
LeftFoot  -7.91599 0.0878505 -1.34332
LeftToes  1.06245e-005 4.65868e-005 -8.65517e-006
2067
root  9.93976 39.1792 22.2304 35.5403 82.2405 32.1668
RightUpLeg  -30.5528 -31.6922 -9.94483
RightLeg  46.1549 13.652 14.4598
RightFoot  3.99651 -3.54979 26.1616
RightToes  0.000481921 0.542163 -0.142578
Spine  27.306 0.24037 0.244855
Spine1  -4.78428 0.812211 -1.70236
HEad  -21.3553 4.32029 -2.42308
LeftShoulder1  8.49896 -13.7885 -42.7165
LeftArm  1.14539 -0.483985 -34.9849
LeftForeArm  -176.311 -59.6591 -164.248
LeftHand  -0.25398 0.0180481 5.50724
RightShoulder  5.32279 10.6256 31.7255
RightArm  10.7364 -4.14718 45.3145
RightForeArm  166.639 66.7629 156.854
RightHand  -1.41494 4.33325 -17.1193
LeftUpLeg  -19.6082 25.245 -5.13624
LeftLeg  24.3545 6.39893 3.51074
LeftFoot  -8.36159 0.0854844 -1.35525
LeftToes  1.06245e-005 4.65868e-005 -8.65517e-006
2068
root  9.96743 39.2416 22.5221 32.7429 82.6608 29.5202
RightUpLeg  -30.0024 -29.3018 -11.658
RightLeg  44.5541 9.75328 9.88852
RightFoot  2.92235 -2.72108 21.6053
RightToes  0.000481921 0.542163 -0.142578
Spine  27.6168 0.213007 0.962423
Spine1  -4.76284 0.784806 -1.01771
HEad  -22.4106 4.89743 -2.73519
LeftShoulder1  8.50613 -13.7268 -42.9178
LeftArm  1.43352 -0.949542 -35.1951
LeftForeArm  -176.301 -59.7368 -164.201
LeftHand  -0.25398 0.0180481 5.50724
RightShoulder  5.33692 10.6146 31.8555
RightArm  10.3936 -3.88831 45.0462
RightForeArm  166.847 66.7506 156.89
RightHand  -1.37223 4.16403 -16.8974
LeftUpLeg  -19.2421 23.6846 -3.75373
LeftLeg  24.4496 7.48745 4.05311
LeftFoot  -7.94389 0.117052 -2.32072
LeftToes  1.06245e-005 4.65868e-005 -8.65517e-006
2069
root  10.0037 39.3482 22.877 27.6556 82.8318 24.4148
RightUpLeg  -28.9646 -26.3589 -12.5393
RightLeg  40.7731 2.97857 2.51498
RightFoot  1.04041 -1.56415 14.3732
RightToes  0.000481921 0.542163 -0.142578
Spine  27.7984 0.251211 1.93043
Spine1  -4.52262 0.942075 -0.681509
HEad  -23.5458 5.50491 -2.67875
LeftShoulder1  8.52687 -13.7903 -42.8611
LeftArm  1.71099 -0.859865 -35.3949
LeftForeArm  -176.34 -59.7743 -164.175
LeftHand  -0.25398 0.0180481 5.50724
RightShoulder  5.39927 10.6743 32.1368
RightArm  9.94669 -3.64427 44.5908
RightForeArm  167.061 67.0633 156.581
RightHand  -1.32326 3.98969 -16.6024
LeftUpLeg  -18.7704 23.4286 -2.36931
LeftLeg  23.8562 7.88416 4.14426
LeftFoot  -7.1815 0.15037 -2.96653
LeftToes  1.06245e-005 4.65868e-005 -8.65517e-006
2070
root  10.0695 39.3835 23.3373 26.3602 82.6902 22.923
RightUpLeg  -27.3364 -23.7475 -13.3868
RightLeg  35.5024 -2.94954 -2.52464
RightFoot  -1.26777 -0.798449 8.99591
RightToes  0.000481921 0.542163 -0.142578
Spine  27.6996 0.305724 2.23368
Spine1  -4.32996 1.07497 -0.842305
HEad  -24.2829 5.86055 -2.41667
LeftShoulder1  8.50289 -13.8217 -42.6503
LeftArm  2.00146 -0.327602 -35.3681
LeftForeArm  -176.27 -59.734 -164.206
LeftHand  -0.25398 0.0180481 5.50724
RightShoulder  5.46522 10.7198 32.4796
RightArm  9.61784 -3.55158 44.2258
RightForeArm  167.247 67.3314 156.312
RightHand  -1.32027 4.02001 -16.5148
LeftUpLeg  -18.4689 24.0335 -1.57891
LeftLeg  23.1462 7.51953 3.85434
LeftFoot  -6.69845 0.162621 -3.02181
LeftToes  1.06245e-005 4.65868e-005 -8.65517e-006
2071
root  10.1645 39.3467 23.9078 32.1318 82.7917 28.4291
RightUpLeg  -24.8995 -22.9549 -14.2869
RightLeg  28.8065 -5.21331 -3.38329
RightFoot  -2.69854 -0.556717 7.15826
RightToes  0.000481921 0.542163 -0.142578
Spine  27.3708 0.286376 1.71375
Spine1  -4.30332 0.904532 -0.779547
HEad  -24.42 5.61246 -2.11391
LeftShoulder1  8.47189 -13.8169 -42.497
LeftArm  2.32253 0.328622 -35.1438
LeftForeArm  -176.228 -59.7726 -164.185
LeftHand  -0.25398 0.0180481 5.50724
RightShoulder  5.46966 10.6594 32.675
RightArm  9.3606 -3.81725 44.0976
RightForeArm  167.357 67.2004 156.467
RightHand  -1.35097 4.13535 -16.6924
LeftUpLeg  -18.3869 24.1838 -1.27369
LeftLeg  22.7307 6.81364 3.46543
LeftFoot  -6.41149 0.194555 -3.6193
LeftToes  1.06245e-005 4.65868e-005 -8.65517e-006
2072
root  10.2626 39.2761 24.5656 42.884 83.3014 38.8543
RightUpLeg  -22.6438 -24.1388 -14.6037
RightLeg  22.8562 -4.0913 -2.11299
RightFoot  -1.83158 -0.644892 7.57564
RightToes  0.000481921 0.542163 -0.142578
Spine  27.0329 0.157976 1.14042
Spine1  -4.49069 0.537703 -0.381307
HEad  -24.1516 4.80313 -2.02926
LeftShoulder1  8.52029 -13.8864 -42.5736
LeftArm  2.66521 0.836542 -34.7985
LeftForeArm  -176.285 -59.9049 -164.099
LeftHand  -0.25398 0.0180481 5.50724
RightShoulder  5.3964 10.4991 32.5939
RightArm  8.9402 -4.59046 44.152
RightForeArm  167.539 66.6766 157.046
RightHand  -1.36479 4.09987 -16.9176
LeftUpLeg  -18.6369 23.4223 -1.02721
LeftLeg  22.6887 6.32827 3.23677
LeftFoot  -5.8741 0.270974 -4.92647
LeftToes  1.06245e-005 4.65868e-005 -8.65517e-006
2073
root  10.3261 39.2025 25.2585 50.0643 83.896 45.5959
RightUpLeg  -22.2537 -25.3702 -13.6232
RightLeg  20.851 -2.63298 -1.31297
RightFoot  0.15479 -0.751395 7.48741
RightToes  0.000481921 0.542163 -0.142578
Spine  27.0171 -0.0261339 1.73279
Spine1  -4.83112 0.44954 -0.514121
HEad  -24.0286 3.98534 -2.33762
LeftShoulder1  8.63752 -14.0196 -42.8482
LeftArm  2.83352 1.09576 -34.4328
LeftForeArm  -176.16 -59.8684 -164.132
LeftHand  -0.25398 0.0180481 5.50724
RightShoulder  5.30052 10.3402 32.3443
RightArm  8.35626 -5.41978 44.1636
RightForeArm  167.772 66.1209 157.641
RightHand  -1.34999 3.9426 -17.0069
LeftUpLeg  -19.2336 22.2479 -0.203902
LeftLeg  22.9192 6.54971 3.36637
LeftFoot  -5.10651 0.349933 -5.86724
LeftToes  1.06245e-005 4.65868e-005 -8.65517e-006
2074
root  10.3346 39.1 25.9489 44.4143 84.3476 39.5769
RightUpLeg  -23.766 -24.9977 -11.3905
RightLeg  22.8337 -2.70464 -1.47609
RightFoot  0.665154 -0.611591 5.82789
RightToes  0.000481921 0.542163 -0.142578
Spine  27.5308 -0.182398 3.70569
Spine1  -5.04741 0.867518 -1.63909
HEad  -24.4741 3.72478 -2.83055
LeftShoulder1  8.71692 -14.1043 -43.0461
LeftArm  2.4696 1.22634 -34.3589
LeftForeArm  -175.704 -59.5124 -164.388
LeftHand  -0.25398 0.0180481 5.50724
RightShoulder  5.24961 10.3052 32.0722
RightArm  7.87645 -5.42791 43.9042
RightForeArm  167.63 65.9079 157.836
RightHand  -1.34648 3.89815 -17.0409
LeftUpLeg  -20.0156 21.1109 1.73879
LeftLeg  23.8985 7.46339 3.94167
LeftFoot  -4.75305 0.395847 -6.38606
LeftToes  1.06245e-005 4.65868e-005 -8.65517e-006
2075
root  10.2964 38.9259 26.6324 29.0143 84.495 24.0871
RightUpLeg  -25.5635 -24.1476 -8.63254
RightLeg  25.898 -3.15166 -1.89106
RightFoot  -0.641366 -0.372009 3.91738
RightToes  0.000481921 0.542163 -0.142578
Spine  28.4235 -0.304064 5.88805
Spine1  -4.98758 1.38612 -2.63402
HEad  -25.158 4.0847 -3.09665
LeftShoulder1  8.70859 -14.1119 -42.9824
LeftArm  1.58268 1.44197 -34.8958
LeftForeArm  -175.313 -59.1403 -164.645
LeftHand  -0.25398 0.0180481 5.50724
RightShoulder  5.24275 10.3914 31.7855
RightArm  7.68283 -4.27282 43.2328
RightForeArm  166.847 66.1113 157.545
RightHand  -1.37488 4.02653 -17.1638
LeftUpLeg  -20.9908 19.9666 4.57167
LeftLeg  26.1932 8.73803 4.98949
LeftFoot  -4.80178 0.445868 -7.27942
LeftToes  1.06245e-005 4.65868e-005 -8.65517e-006
2076
root  10.2243 38.7027 27.315 17.2718 84.702 12.362
RightUpLeg  -26.9134 -24.5544 -6.17768
RightLeg  28.3771 -2.82516 -1.88679
RightFoot  -2.41349 -0.241343 2.89285
RightToes  0.000481921 0.542163 -0.142578
Spine  29.3451 -0.391229 6.91858
Spine1  -5.00359 1.45605 -2.17548
HEad  -25.3498 4.75321 -3.02919
LeftShoulder1  8.68832 -14.1182 -42.8599
LeftArm  0.824154 1.71204 -35.8392
LeftForeArm  -175.341 -59.2069 -164.602
LeftHand  -0.25398 0.0180481 5.50724
RightShoulder  5.22085 10.4321 31.516
RightArm  7.62966 -2.54481 42.1047
RightForeArm  165.872 66.5067 157.032
RightHand  -1.39541 4.09875 -17.2862
LeftUpLeg  -22.5532 18.7426 7.01154
LeftLeg  29.3399 10.374 6.59454
LeftFoot  -4.09568 0.505815 -7.61848
LeftToes  1.06245e-005 4.65868e-005 -8.65517e-006
2077
root  10.127 38.4753 27.9797 13.1097 85.4946 7.94313
RightUpLeg  -28.3992 -25.894 -4.26235
RightLeg  30.6974 -2.25256 -1.69225
RightFoot  -3.95035 -0.184268 2.43703
RightToes  0.000481921 0.542163 -0.142578
Spine  30.2432 -0.480562 6.89217
Spine1  -5.4682 1.09043 -0.706521
HEad  -24.9501 5.25001 -2.77738
LeftShoulder1  8.73638 -14.181 -42.9489
LeftArm  0.819999 1.67687 -36.5288
LeftForeArm  -175.515 -59.7288 -164.273
LeftHand  -0.25398 0.0180481 5.50724
RightShoulder  5.1571 10.319 31.3606
RightArm  7.35003 -1.04734 40.7364
RightForeArm  165.294 66.8226 156.634
RightHand  -1.37635 3.97765 -17.2665
LeftUpLeg  -25.2196 17.7613 8.03414
LeftLeg  32.8321 12.3372 8.79505
LeftFoot  -2.46447 0.440583 -5.53695
LeftToes  1.06245e-005 4.65868e-005 -8.65517e-006
2078
root  10.0071 38.2562 28.584 11.7416 86.4262 6.03622
RightUpLeg  -30.3078 -26.6746 -2.64428
RightLeg  33.2486 -2.36592 -1.93148
RightFoot  -5.44817 -0.132389 1.84489
RightToes  0.000481921 0.542163 -0.142578
Spine  31.3365 -0.695759 6.85202
Spine1  -6.17034 0.717976 0.128518
HEad  -24.7503 5.45959 -2.57463
LeftShoulder1  8.81524 -14.2849 -43.092
LeftArm  1.48633 1.07799 -36.7005
LeftForeArm  -175.356 -60.2422 -163.969
LeftHand  -0.25398 0.0180481 5.50724
RightShoulder  5.09163 10.1836 31.2506
RightArm  6.55637 -0.0351476 39.6487
RightForeArm  164.92 66.9407 156.464
RightHand  -1.35932 3.86104 -17.2638
LeftUpLeg  -28.7753 17.4943 7.82199
LeftLeg  36.8025 13.4261 10.9105
LeftFoot  -1.75809 0.201514 -2.20121
LeftToes  1.06245e-005 4.65868e-005 -8.65517e-006
